<svg xmlns="http://www.w3.org/2000/svg" viewBox="120 150 960 600" width="1200" height="750" preserveAspectRatio="xMidYMid slice" role="img" aria-label="Miami Beach Botanical Garden: a free green pocket with a lily pond"><defs><linearGradient id="sky" x1="0" y1="0" x2="0" y2="1"><stop offset="0" stop-color="#6fd0a8"/><stop offset="1" stop-color="#e9ffd6"/></linearGradient><linearGradient id="sea" x1="0" y1="0" x2="0" y2="1"><stop offset="0" stop-color="#3f8f57"/><stop offset="1" stop-color="#1d4d33"/></linearGradient><radialGradient id="glow" cx=".5" cy=".5" r=".5"><stop offset="0" stop-color="#d5f7bd" stop-opacity=".85"/><stop offset="1" stop-color="#d5f7bd" stop-opacity="0"/></radialGradient></defs><rect width="1200" height="750" fill="url(#sky)"/><circle cx="864" cy="210" r="250" fill="url(#glow)"/><circle cx="864" cy="210" r="96" fill="#fff0a8"/><g fill="none" stroke="#fff0a8" stroke-width="4" opacity=".3"><circle cx="864" cy="210" r="140"/><circle cx="864" cy="210" r="186"/></g><g transform="translate(150 140) scale(1.0)" fill="#f4ffe6" opacity=".6"><ellipse cx="0" cy="0" rx="72" ry="26"/><ellipse cx="-42" cy="8" rx="44" ry="20"/><ellipse cx="46" cy="9" rx="50" ry="21"/></g><g transform="translate(470 180) scale(0.7)" fill="#f4ffe6" opacity=".6"><ellipse cx="0" cy="0" rx="72" ry="26"/><ellipse cx="-42" cy="8" rx="44" ry="20"/><ellipse cx="46" cy="9" rx="50" ry="21"/></g><g transform="translate(930 150) scale(0.85)" fill="#f4ffe6" opacity=".6"><ellipse cx="0" cy="0" rx="72" ry="26"/><ellipse cx="-42" cy="8" rx="44" ry="20"/><ellipse cx="46" cy="9" rx="50" ry="21"/></g><rect x="0" y="410" width="1200" height="750" fill="#9fd98a"/><g transform="translate(170 540) scale(1.0)"><rect x="-9" y="-96" width="18" height="96" rx="7" fill="#7a4a2b"/><circle cx="0" cy="-130" r="66" fill="#2fa363"/><circle cx="-48" cy="-102" r="44" fill="#1c5c3a" opacity=".55"/><circle cx="48" cy="-106" r="46" fill="#2fa363"/></g><g transform="translate(1040 550) scale(1.05)"><rect x="-9" y="-96" width="18" height="96" rx="7" fill="#7a4a2b"/><circle cx="0" cy="-130" r="66" fill="#39a86c"/><circle cx="-48" cy="-102" r="44" fill="#1c5c3a" opacity=".55"/><circle cx="48" cy="-106" r="46" fill="#39a86c"/></g><g transform="translate(380 566) scale(1.0)"><path d="M0 0 C-14 -100 -6 -192 6 -268" stroke="#14351f" stroke-width="15" fill="none" stroke-linecap="round"/><g transform="translate(6 -268)"><g fill="#14351f"><path d="M0 0 Q64 -46 132 8 Q66 -12 0 9 Z" transform="rotate(-40)"/><path d="M0 0 Q64 -46 132 8 Q66 -12 0 9 Z" transform="rotate(-13)"/><path d="M0 0 Q64 -46 132 8 Q66 -12 0 9 Z" transform="rotate(16)"/><path d="M0 0 Q64 -46 132 8 Q66 -12 0 9 Z" transform="rotate(45)"/><g transform="scale(-1,1)"><path d="M0 0 Q64 -46 132 8 Q66 -12 0 9 Z" transform="rotate(-40)"/><path d="M0 0 Q64 -46 132 8 Q66 -12 0 9 Z" transform="rotate(-13)"/><path d="M0 0 Q64 -46 132 8 Q66 -12 0 9 Z" transform="rotate(16)"/><path d="M0 0 Q64 -46 132 8 Q66 -12 0 9 Z" transform="rotate(45)"/></g></g><g fill="#14351f" opacity=".9"><circle cx="-11" cy="10" r="8"/><circle cx="9" cy="14" r="8"/><circle cx="-1" cy="25" r="8"/></g></g></g><g transform="translate(840 574) scale(1.1)"><path d="M0 0 C-14 -100 -6 -192 6 -268" stroke="#14351f" stroke-width="15" fill="none" stroke-linecap="round"/><g transform="translate(6 -268)"><g fill="#14351f"><path d="M0 0 Q64 -46 132 8 Q66 -12 0 9 Z" transform="rotate(-40)"/><path d="M0 0 Q64 -46 132 8 Q66 -12 0 9 Z" transform="rotate(-13)"/><path d="M0 0 Q64 -46 132 8 Q66 -12 0 9 Z" transform="rotate(16)"/><path d="M0 0 Q64 -46 132 8 Q66 -12 0 9 Z" transform="rotate(45)"/><g transform="scale(-1,1)"><path d="M0 0 Q64 -46 132 8 Q66 -12 0 9 Z" transform="rotate(-40)"/><path d="M0 0 Q64 -46 132 8 Q66 -12 0 9 Z" transform="rotate(-13)"/><path d="M0 0 Q64 -46 132 8 Q66 -12 0 9 Z" transform="rotate(16)"/><path d="M0 0 Q64 -46 132 8 Q66 -12 0 9 Z" transform="rotate(45)"/></g></g><g fill="#14351f" opacity=".9"><circle cx="-11" cy="10" r="8"/><circle cx="9" cy="14" r="8"/><circle cx="-1" cy="25" r="8"/></g></g></g><ellipse cx="600" cy="670" rx="420" ry="86" fill="#5ad0e0"/><ellipse cx="600" cy="670" rx="420" ry="86" fill="none" stroke="#0d3b42" stroke-width="5" opacity=".25"/><ellipse cx="380" cy="660" rx="34" ry="12" fill="#2fa363" opacity=".8"/><ellipse cx="490" cy="678" rx="34" ry="12" fill="#2fa363" opacity=".8"/><ellipse cx="600" cy="696" rx="34" ry="12" fill="#2fa363" opacity=".8"/><ellipse cx="710" cy="660" rx="34" ry="12" fill="#2fa363" opacity=".8"/><ellipse cx="820" cy="678" rx="34" ry="12" fill="#2fa363" opacity=".8"/><ellipse cx="930" cy="696" rx="34" ry="12" fill="#2fa363" opacity=".8"/><circle cx="420" cy="654" r="9" fill="#ff8fb1"/><circle cx="570" cy="674" r="9" fill="#ff8fb1"/><circle cx="720" cy="654" r="9" fill="#ff8fb1"/><circle cx="870" cy="674" r="9" fill="#ff8fb1"/><circle cx="1020" cy="654" r="9" fill="#ff8fb1"/><g transform="translate(600 570) scale(0.92)" fill="#12303c"><rect x="-56" y="-30" width="112" height="10" rx="5"/><rect x="-56" y="-52" width="112" height="9" rx="4" opacity=".8"/><rect x="-48" y="-22" width="9" height="22" rx="4"/><rect x="39" y="-22" width="9" height="22" rx="4"/></g></svg>