<svg xmlns="http://www.w3.org/2000/svg" viewBox="120 150 960 600" width="1200" height="750" preserveAspectRatio="xMidYMid slice" role="img" aria-label="The MacArthur Causeway lookout over Star Island and the cruise port"><defs><linearGradient id="sky" x1="0" y1="0" x2="0" y2="1"><stop offset="0" stop-color="#63d3f0"/><stop offset="1" stop-color="#bdf0ff"/></linearGradient><linearGradient id="sea" x1="0" y1="0" x2="0" y2="1"><stop offset="0" stop-color="#0aa2c0"/><stop offset="1" stop-color="#04657f"/></linearGradient><radialGradient id="glow" cx=".5" cy=".5" r=".5"><stop offset="0" stop-color="#ffe9a8" stop-opacity=".85"/><stop offset="1" stop-color="#ffe9a8" stop-opacity="0"/></radialGradient></defs><rect width="1200" height="750" fill="url(#sky)"/><circle cx="864" cy="210" r="250" fill="url(#glow)"/><circle cx="864" cy="210" r="96" fill="#ffd54a"/><g fill="none" stroke="#ffd54a" stroke-width="4" opacity=".3"><circle cx="864" cy="210" r="140"/><circle cx="864" cy="210" r="186"/></g><g transform="translate(150 160) scale(1.0)" fill="#ffffff" opacity=".5"><ellipse cx="0" cy="0" rx="72" ry="26"/><ellipse cx="-42" cy="8" rx="44" ry="20"/><ellipse cx="46" cy="9" rx="50" ry="21"/></g><g transform="translate(470 200) scale(0.7)" fill="#ffffff" opacity=".5"><ellipse cx="0" cy="0" rx="72" ry="26"/><ellipse cx="-42" cy="8" rx="44" ry="20"/><ellipse cx="46" cy="9" rx="50" ry="21"/></g><g transform="translate(930 170) scale(0.85)" fill="#ffffff" opacity=".5"><ellipse cx="0" cy="0" rx="72" ry="26"/><ellipse cx="-42" cy="8" rx="44" ry="20"/><ellipse cx="46" cy="9" rx="50" ry="21"/></g><g fill="#0f3b4a" opacity=".7"><rect x="-30" y="350" width="57" height="120" rx="6"/><rect x="48" y="390" width="91" height="80" rx="6"/><rect x="166" y="270" width="39" height="200" rx="6"/><rect x="226" y="350" width="57" height="120" rx="6"/><rect x="310" y="270" width="91" height="200" rx="6"/><rect x="422" y="350" width="57" height="120" rx="6"/><rect x="506" y="270" width="57" height="200" rx="6"/><rect x="590" y="390" width="39" height="80" rx="6"/><rect x="645" y="310" width="39" height="160" rx="6"/><rect x="700" y="270" width="75" height="200" rx="6"/><rect x="802" y="270" width="91" height="200" rx="6"/><rect x="914" y="350" width="91" height="120" rx="6"/><rect x="1026" y="390" width="39" height="80" rx="6"/><rect x="1081" y="350" width="91" height="120" rx="6"/><rect x="1193" y="310" width="91" height="160" rx="6"/></g><rect x="0" y="460" width="1200" height="290" fill="url(#sea)"/><g fill="none" stroke="#ffffff" stroke-width="4" opacity=".32" stroke-linecap="round"><path d="M-20 500 q 26 -22 52 0 t 52 0 q 26 -22 52 0 t 52 0 q 26 -22 52 0 t 52 0 q 26 -22 52 0 t 52 0 q 26 -22 52 0 t 52 0 q 26 -22 52 0 t 52 0 q 26 -22 52 0 t 52 0 q 26 -22 52 0 t 52 0 q 26 -22 52 0 t 52 0 q 26 -22 52 0 t 52 0 q 26 -22 52 0 t 52 0 q 26 -22 52 0 t 52 0 q 26 -22 52 0 t 52 0"/><path d="M-20 556 q 34 -22 68 0 t 68 0 q 34 -22 68 0 t 68 0 q 34 -22 68 0 t 68 0 q 34 -22 68 0 t 68 0 q 34 -22 68 0 t 68 0 q 34 -22 68 0 t 68 0 q 34 -22 68 0 t 68 0 q 34 -22 68 0 t 68 0 q 34 -22 68 0 t 68 0 q 34 -22 68 0 t 68 0"/></g><g transform="translate(320 620) scale(1.0)"><ellipse cx="0" cy="0" rx="180" ry="34" fill="#ffe6c2"/><rect x="-96" y="-72" width="190" height="72" rx="9" fill="#ffffff" opacity=".92"/><path d="M-104 -72 L102 -72 L74 -108 L-76 -108 Z" fill="#ff8fb1"/><g transform="translate(-130 2) scale(0.52)"><path d="M0 0 C-14 -100 -6 -192 6 -268" stroke="#12303c" stroke-width="15" fill="none" stroke-linecap="round"/><g transform="translate(6 -268)"><g fill="#12303c"><path d="M0 0 Q64 -46 132 8 Q66 -12 0 9 Z" transform="rotate(-40)"/><path d="M0 0 Q64 -46 132 8 Q66 -12 0 9 Z" transform="rotate(-13)"/><path d="M0 0 Q64 -46 132 8 Q66 -12 0 9 Z" transform="rotate(16)"/><path d="M0 0 Q64 -46 132 8 Q66 -12 0 9 Z" transform="rotate(45)"/><g transform="scale(-1,1)"><path d="M0 0 Q64 -46 132 8 Q66 -12 0 9 Z" transform="rotate(-40)"/><path d="M0 0 Q64 -46 132 8 Q66 -12 0 9 Z" transform="rotate(-13)"/><path d="M0 0 Q64 -46 132 8 Q66 -12 0 9 Z" transform="rotate(16)"/><path d="M0 0 Q64 -46 132 8 Q66 -12 0 9 Z" transform="rotate(45)"/></g></g><g fill="#12303c" opacity=".9"><circle cx="-11" cy="10" r="8"/><circle cx="9" cy="14" r="8"/><circle cx="-1" cy="25" r="8"/></g></g></g><g transform="translate(140 4) scale(0.46)"><path d="M0 0 C-14 -100 -6 -192 6 -268" stroke="#12303c" stroke-width="15" fill="none" stroke-linecap="round"/><g transform="translate(6 -268)"><g fill="#12303c"><path d="M0 0 Q64 -46 132 8 Q66 -12 0 9 Z" transform="rotate(-40)"/><path d="M0 0 Q64 -46 132 8 Q66 -12 0 9 Z" transform="rotate(-13)"/><path d="M0 0 Q64 -46 132 8 Q66 -12 0 9 Z" transform="rotate(16)"/><path d="M0 0 Q64 -46 132 8 Q66 -12 0 9 Z" transform="rotate(45)"/><g transform="scale(-1,1)"><path d="M0 0 Q64 -46 132 8 Q66 -12 0 9 Z" transform="rotate(-40)"/><path d="M0 0 Q64 -46 132 8 Q66 -12 0 9 Z" transform="rotate(-13)"/><path d="M0 0 Q64 -46 132 8 Q66 -12 0 9 Z" transform="rotate(16)"/><path d="M0 0 Q64 -46 132 8 Q66 -12 0 9 Z" transform="rotate(45)"/></g></g><g fill="#12303c" opacity=".9"><circle cx="-11" cy="10" r="8"/><circle cx="9" cy="14" r="8"/><circle cx="-1" cy="25" r="8"/></g></g></g></g><g transform="translate(880 590) scale(0.62)"><path d="M-230 0 L230 0 L196 42 L-196 42 Z" fill="#ffffff"/><rect x="-214" y="-16" width="428" height="18" fill="#0aa2c0" opacity=".85"/><rect x="-176" y="-74" width="352" height="58" rx="7" fill="#ffffff"/><rect x="-140" y="-118" width="266" height="46" rx="7" fill="#ffffff" opacity=".95"/><g fill="#12303c" opacity=".45"><rect x="-166" y="-66" width="18" height="16" rx="3"/><rect x="-136" y="-66" width="18" height="16" rx="3"/><rect x="-106" y="-66" width="18" height="16" rx="3"/><rect x="-76" y="-66" width="18" height="16" rx="3"/><rect x="-46" y="-66" width="18" height="16" rx="3"/><rect x="-16" y="-66" width="18" height="16" rx="3"/><rect x="14" y="-66" width="18" height="16" rx="3"/><rect x="44" y="-66" width="18" height="16" rx="3"/><rect x="74" y="-66" width="18" height="16" rx="3"/><rect x="104" y="-66" width="18" height="16" rx="3"/><rect x="134" y="-66" width="18" height="16" rx="3"/><rect x="164" y="-66" width="18" height="16" rx="3"/><rect x="-130" y="-110" width="18" height="16" rx="3"/><rect x="-100" y="-110" width="18" height="16" rx="3"/><rect x="-70" y="-110" width="18" height="16" rx="3"/><rect x="-40" y="-110" width="18" height="16" rx="3"/><rect x="-10" y="-110" width="18" height="16" rx="3"/><rect x="20" y="-110" width="18" height="16" rx="3"/><rect x="50" y="-110" width="18" height="16" rx="3"/><rect x="80" y="-110" width="18" height="16" rx="3"/><rect x="110" y="-110" width="18" height="16" rx="3"/></g><rect x="76" y="-152" width="34" height="38" rx="9" fill="#0aa2c0"/></g><g transform="translate(620 630) scale(0.7)"><path d="M-62 0 L62 0 L46 22 L-46 22 Z" fill="#ffffff"/><rect x="-2" y="-118" width="5" height="118" fill="#12303c" opacity=".8"/><path d="M4 -114 L58 -6 L4 -6 Z" fill="#ffffff"/><path d="M-6 -104 L-52 -6 L-6 -6 Z" fill="#ff5d73" opacity=".9"/></g><rect x="0" y="654" width="1200" height="96" fill="#e6eef2"/><rect x="0" y="654" width="1200" height="10" fill="#12303c" opacity=".3"/><g transform="translate(430 732) scale(0.92)"><g fill="none" stroke="#1d2b33" stroke-width="7"><circle cx="-56" cy="-26" r="26"/><circle cx="56" cy="-26" r="26"/></g><g fill="none" stroke="#ffffff" stroke-width="2" opacity=".55"><circle cx="-56" cy="-26" r="17"/><circle cx="56" cy="-26" r="17"/></g><g fill="none" stroke="#ff5d73" stroke-width="7" stroke-linecap="round" stroke-linejoin="round"><path d="M-56 -26 L0 -26 L-16 -68 L-56 -26"/><path d="M-16 -68 L28 -68 L46 -30 L56 -26"/><path d="M0 -26 L46 -30"/><path d="M28 -68 L30 -80"/></g><path d="M-30 -76 L-4 -76" stroke="#ff5d73" stroke-width="8" stroke-linecap="round"/><path d="M22 -84 L44 -84" stroke="#ff5d73" stroke-width="7" stroke-linecap="round"/><circle cx="0" cy="-26" r="8" fill="none" stroke="#ff5d73" stroke-width="5"/></g><g transform="translate(430 732) scale(0.92)"><path d="M-14 -80 L2 -50 L-6 -22" stroke="#12303c" stroke-width="10" fill="none" stroke-linecap="round" stroke-linejoin="round" opacity=".55"/><path d="M-14 -80 L24 -106" stroke="#ffc531" stroke-width="22" fill="none" stroke-linecap="round"/><path d="M-14 -80 L6 -52 L0 -24" stroke="#12303c" stroke-width="11" fill="none" stroke-linecap="round" stroke-linejoin="round"/><path d="M24 -104 L40 -86" stroke="#f6c9a0" stroke-width="9" fill="none" stroke-linecap="round"/><circle cx="31" cy="-120" r="13" fill="#f6c9a0"/><path d="M15 -121 a16 16 0 0 1 32 0 l-4 4 l-24 0 Z" fill="#ffffff"/><path d="M15 -121 l32 0" stroke="#12303c" stroke-width="2" opacity=".25"/></g></svg>