<svg xmlns="http://www.w3.org/2000/svg" viewBox="120 150 960 600" width="1200" height="750" preserveAspectRatio="xMidYMid slice" role="img" aria-label="The car-free Beachwalk at 14th Street, ocean on one side"><defs><linearGradient id="sky" x1="0" y1="0" x2="0" y2="1"><stop offset="0" stop-color="#1fb6c9"/><stop offset="1" stop-color="#9ff2e0"/></linearGradient><linearGradient id="sea" x1="0" y1="0" x2="0" y2="1"><stop offset="0" stop-color="#0bb3b0"/><stop offset="1" stop-color="#046a70"/></linearGradient><radialGradient id="glow" cx=".5" cy=".5" r=".5"><stop offset="0" stop-color="#d7fbef" stop-opacity=".85"/><stop offset="1" stop-color="#d7fbef" stop-opacity="0"/></radialGradient></defs><rect width="1200" height="750" fill="url(#sky)"/><circle cx="360" cy="210" r="250" fill="url(#glow)"/><circle cx="360" cy="210" r="96" fill="#fff0b3"/><g fill="none" stroke="#fff0b3" stroke-width="4" opacity=".3"><circle cx="360" cy="210" r="140"/><circle cx="360" cy="210" r="186"/></g><g transform="translate(150 160) scale(1.0)" fill="#ffffff" opacity=".5"><ellipse cx="0" cy="0" rx="72" ry="26"/><ellipse cx="-42" cy="8" rx="44" ry="20"/><ellipse cx="46" cy="9" rx="50" ry="21"/></g><g transform="translate(470 200) scale(0.7)" fill="#ffffff" opacity=".5"><ellipse cx="0" cy="0" rx="72" ry="26"/><ellipse cx="-42" cy="8" rx="44" ry="20"/><ellipse cx="46" cy="9" rx="50" ry="21"/></g><g transform="translate(930 170) scale(0.85)" fill="#ffffff" opacity=".5"><ellipse cx="0" cy="0" rx="72" ry="26"/><ellipse cx="-42" cy="8" rx="44" ry="20"/><ellipse cx="46" cy="9" rx="50" ry="21"/></g><rect x="0" y="410" width="1200" height="170" fill="url(#sea)"/><g fill="none" stroke="#ffffff" stroke-width="4" opacity=".32" stroke-linecap="round"><path d="M-20 450 q 26 -22 52 0 t 52 0 q 26 -22 52 0 t 52 0 q 26 -22 52 0 t 52 0 q 26 -22 52 0 t 52 0 q 26 -22 52 0 t 52 0 q 26 -22 52 0 t 52 0 q 26 -22 52 0 t 52 0 q 26 -22 52 0 t 52 0 q 26 -22 52 0 t 52 0 q 26 -22 52 0 t 52 0 q 26 -22 52 0 t 52 0 q 26 -22 52 0 t 52 0 q 26 -22 52 0 t 52 0"/><path d="M-20 506 q 34 -22 68 0 t 68 0 q 34 -22 68 0 t 68 0 q 34 -22 68 0 t 68 0 q 34 -22 68 0 t 68 0 q 34 -22 68 0 t 68 0 q 34 -22 68 0 t 68 0 q 34 -22 68 0 t 68 0 q 34 -22 68 0 t 68 0 q 34 -22 68 0 t 68 0 q 34 -22 68 0 t 68 0"/></g><rect x="0" y="570" width="1200" height="750" fill="#fff0d2"/><path d="M-40 750 C240 660 380 670 520 600 L760 600 C700 720 780 680 1240 750 Z" fill="#e8e2d4"/><path d="M300 720 C420 630 500 690 600 620" stroke="#12303c" stroke-width="5" stroke-dasharray="26 22" opacity=".3" fill="none"/><g transform="translate(140 744) scale(1.2)"><path d="M0 0 C-14 -100 -6 -192 6 -268" stroke="#0d3b42" stroke-width="15" fill="none" stroke-linecap="round"/><g transform="translate(6 -268)"><g fill="#0d3b42"><path d="M0 0 Q64 -46 132 8 Q66 -12 0 9 Z" transform="rotate(-40)"/><path d="M0 0 Q64 -46 132 8 Q66 -12 0 9 Z" transform="rotate(-13)"/><path d="M0 0 Q64 -46 132 8 Q66 -12 0 9 Z" transform="rotate(16)"/><path d="M0 0 Q64 -46 132 8 Q66 -12 0 9 Z" transform="rotate(45)"/><g transform="scale(-1,1)"><path d="M0 0 Q64 -46 132 8 Q66 -12 0 9 Z" transform="rotate(-40)"/><path d="M0 0 Q64 -46 132 8 Q66 -12 0 9 Z" transform="rotate(-13)"/><path d="M0 0 Q64 -46 132 8 Q66 -12 0 9 Z" transform="rotate(16)"/><path d="M0 0 Q64 -46 132 8 Q66 -12 0 9 Z" transform="rotate(45)"/></g></g><g fill="#0d3b42" opacity=".9"><circle cx="-11" cy="10" r="8"/><circle cx="9" cy="14" r="8"/><circle cx="-1" cy="25" r="8"/></g></g></g><g transform="translate(1080 754) scale(1.28)"><path d="M0 0 C-14 -100 -6 -192 6 -268" stroke="#0d3b42" stroke-width="15" fill="none" stroke-linecap="round"/><g transform="translate(6 -268)"><g fill="#0d3b42"><path d="M0 0 Q64 -46 132 8 Q66 -12 0 9 Z" transform="rotate(-40)"/><path d="M0 0 Q64 -46 132 8 Q66 -12 0 9 Z" transform="rotate(-13)"/><path d="M0 0 Q64 -46 132 8 Q66 -12 0 9 Z" transform="rotate(16)"/><path d="M0 0 Q64 -46 132 8 Q66 -12 0 9 Z" transform="rotate(45)"/><g transform="scale(-1,1)"><path d="M0 0 Q64 -46 132 8 Q66 -12 0 9 Z" transform="rotate(-40)"/><path d="M0 0 Q64 -46 132 8 Q66 -12 0 9 Z" transform="rotate(-13)"/><path d="M0 0 Q64 -46 132 8 Q66 -12 0 9 Z" transform="rotate(16)"/><path d="M0 0 Q64 -46 132 8 Q66 -12 0 9 Z" transform="rotate(45)"/></g></g><g fill="#0d3b42" opacity=".9"><circle cx="-11" cy="10" r="8"/><circle cx="9" cy="14" r="8"/><circle cx="-1" cy="25" r="8"/></g></g></g><g transform="translate(300 620) scale(0.62)"><g stroke="#12303c" stroke-width="9" stroke-linecap="round"><path d="M-44 0 L-30 -66"/><path d="M44 0 L30 -66"/></g><path d="M-46 -60 L46 -60 L38 -70 L-38 -70 Z" fill="#12303c" opacity=".35"/><rect x="-52" y="-136" width="104" height="72" rx="8" fill="#ffc531"/><rect x="-30" y="-120" width="60" height="38" rx="5" fill="#ffffff" opacity=".75"/><path d="M-66 -136 L66 -136 L44 -178 L-44 -178 Z" fill="#ff5d73"/><rect x="-3" y="-238" width="6" height="62" rx="3" fill="#12303c"/><path d="M3 -236 L54 -218 L3 -200 Z" fill="#ffc531"/></g><g transform="translate(700 660) scale(1.15)"><g fill="none" stroke="#1d2b33" stroke-width="7"><circle cx="-56" cy="-26" r="26"/><circle cx="56" cy="-26" r="26"/></g><g fill="none" stroke="#ffffff" stroke-width="2" opacity=".55"><circle cx="-56" cy="-26" r="17"/><circle cx="56" cy="-26" r="17"/></g><g fill="none" stroke="#ff5d73" stroke-width="7" stroke-linecap="round" stroke-linejoin="round"><path d="M-56 -26 L0 -26 L-16 -68 L-56 -26"/><path d="M-16 -68 L28 -68 L46 -30 L56 -26"/><path d="M0 -26 L46 -30"/><path d="M28 -68 L30 -80"/></g><path d="M-30 -76 L-4 -76" stroke="#ff5d73" stroke-width="8" stroke-linecap="round"/><path d="M22 -84 L44 -84" stroke="#ff5d73" stroke-width="7" stroke-linecap="round"/><circle cx="0" cy="-26" r="8" fill="none" stroke="#ff5d73" stroke-width="5"/></g><g transform="translate(700 660) scale(1.15)"><path d="M-14 -80 L2 -50 L-6 -22" stroke="#12303c" stroke-width="10" fill="none" stroke-linecap="round" stroke-linejoin="round" opacity=".55"/><path d="M-14 -80 L24 -106" stroke="#ffffff" stroke-width="22" fill="none" stroke-linecap="round"/><path d="M-14 -80 L6 -52 L0 -24" stroke="#12303c" stroke-width="11" fill="none" stroke-linecap="round" stroke-linejoin="round"/><path d="M24 -104 L40 -86" stroke="#f6c9a0" stroke-width="9" fill="none" stroke-linecap="round"/><circle cx="31" cy="-120" r="13" fill="#f6c9a0"/><path d="M15 -121 a16 16 0 0 1 32 0 l-4 4 l-24 0 Z" fill="#ffffff"/><path d="M15 -121 l32 0" stroke="#12303c" stroke-width="2" opacity=".25"/></g></svg>