<svg xmlns="http://www.w3.org/2000/svg" viewBox="120 150 960 600" width="1200" height="750" preserveAspectRatio="xMidYMid slice" role="img" aria-label="Flamingo Park: the courts and lawns where Miami Beach locals actually go"><defs><linearGradient id="sky" x1="0" y1="0" x2="0" y2="1"><stop offset="0" stop-color="#63d3f0"/><stop offset="1" stop-color="#bdf0ff"/></linearGradient><linearGradient id="sea" x1="0" y1="0" x2="0" y2="1"><stop offset="0" stop-color="#0aa2c0"/><stop offset="1" stop-color="#04657f"/></linearGradient><radialGradient id="glow" cx=".5" cy=".5" r=".5"><stop offset="0" stop-color="#ffe9a8" stop-opacity=".85"/><stop offset="1" stop-color="#ffe9a8" stop-opacity="0"/></radialGradient></defs><rect width="1200" height="750" fill="url(#sky)"/><circle cx="936" cy="210" r="250" fill="url(#glow)"/><circle cx="936" cy="210" r="96" fill="#ffd54a"/><g fill="none" stroke="#ffd54a" stroke-width="4" opacity=".3"><circle cx="936" cy="210" r="140"/><circle cx="936" cy="210" r="186"/></g><g transform="translate(150 160) scale(1.0)" fill="#ffffff" opacity=".5"><ellipse cx="0" cy="0" rx="72" ry="26"/><ellipse cx="-42" cy="8" rx="44" ry="20"/><ellipse cx="46" cy="9" rx="50" ry="21"/></g><g transform="translate(470 200) scale(0.7)" fill="#ffffff" opacity=".5"><ellipse cx="0" cy="0" rx="72" ry="26"/><ellipse cx="-42" cy="8" rx="44" ry="20"/><ellipse cx="46" cy="9" rx="50" ry="21"/></g><g transform="translate(930 170) scale(0.85)" fill="#ffffff" opacity=".5"><ellipse cx="0" cy="0" rx="72" ry="26"/><ellipse cx="-42" cy="8" rx="44" ry="20"/><ellipse cx="46" cy="9" rx="50" ry="21"/></g><g fill="#0f3b4a" opacity=".4"><rect x="-30" y="330" width="57" height="120" rx="6"/><rect x="48" y="370" width="91" height="80" rx="6"/><rect x="166" y="250" width="39" height="200" rx="6"/><rect x="226" y="330" width="57" height="120" rx="6"/><rect x="310" y="250" width="91" height="200" rx="6"/><rect x="422" y="330" width="57" height="120" rx="6"/><rect x="506" y="250" width="57" height="200" rx="6"/><rect x="590" y="370" width="39" height="80" rx="6"/><rect x="645" y="290" width="39" height="160" rx="6"/><rect x="700" y="250" width="75" height="200" rx="6"/><rect x="802" y="250" width="91" height="200" rx="6"/><rect x="914" y="330" width="91" height="120" rx="6"/><rect x="1026" y="370" width="39" height="80" rx="6"/><rect x="1081" y="330" width="91" height="120" rx="6"/><rect x="1193" y="290" width="91" height="160" rx="6"/></g><rect x="0" y="440" width="1200" height="750" fill="#7fd08f"/><rect x="150" y="540" width="900" height="330" rx="16" fill="#3f8f57" opacity=".55"/><rect x="150" y="700" width="900" height="6" fill="#ffffff" opacity=".8"/><rect x="597" y="540" width="6" height="330" fill="#ffffff" opacity=".7"/><g transform="translate(120 560) scale(0.9)"><rect x="-9" y="-96" width="18" height="96" rx="7" fill="#7a4a2b"/><circle cx="0" cy="-130" r="66" fill="#2fa363"/><circle cx="-48" cy="-102" r="44" fill="#1c5c3a" opacity=".55"/><circle cx="48" cy="-106" r="46" fill="#2fa363"/></g><g transform="translate(1090 566) scale(0.95)"><rect x="-9" y="-96" width="18" height="96" rx="7" fill="#7a4a2b"/><circle cx="0" cy="-130" r="66" fill="#2fa363"/><circle cx="-48" cy="-102" r="44" fill="#1c5c3a" opacity=".55"/><circle cx="48" cy="-106" r="46" fill="#2fa363"/></g><g transform="translate(340 532) scale(0.8)"><path d="M0 0 C-14 -100 -6 -192 6 -268" stroke="#0f3b4a" stroke-width="15" fill="none" stroke-linecap="round"/><g transform="translate(6 -268)"><g fill="#0f3b4a"><path d="M0 0 Q64 -46 132 8 Q66 -12 0 9 Z" transform="rotate(-40)"/><path d="M0 0 Q64 -46 132 8 Q66 -12 0 9 Z" transform="rotate(-13)"/><path d="M0 0 Q64 -46 132 8 Q66 -12 0 9 Z" transform="rotate(16)"/><path d="M0 0 Q64 -46 132 8 Q66 -12 0 9 Z" transform="rotate(45)"/><g transform="scale(-1,1)"><path d="M0 0 Q64 -46 132 8 Q66 -12 0 9 Z" transform="rotate(-40)"/><path d="M0 0 Q64 -46 132 8 Q66 -12 0 9 Z" transform="rotate(-13)"/><path d="M0 0 Q64 -46 132 8 Q66 -12 0 9 Z" transform="rotate(16)"/><path d="M0 0 Q64 -46 132 8 Q66 -12 0 9 Z" transform="rotate(45)"/></g></g><g fill="#0f3b4a" opacity=".9"><circle cx="-11" cy="10" r="8"/><circle cx="9" cy="14" r="8"/><circle cx="-1" cy="25" r="8"/></g></g></g><g transform="translate(880 536) scale(0.84)"><path d="M0 0 C-14 -100 -6 -192 6 -268" stroke="#0f3b4a" stroke-width="15" fill="none" stroke-linecap="round"/><g transform="translate(6 -268)"><g fill="#0f3b4a"><path d="M0 0 Q64 -46 132 8 Q66 -12 0 9 Z" transform="rotate(-40)"/><path d="M0 0 Q64 -46 132 8 Q66 -12 0 9 Z" transform="rotate(-13)"/><path d="M0 0 Q64 -46 132 8 Q66 -12 0 9 Z" transform="rotate(16)"/><path d="M0 0 Q64 -46 132 8 Q66 -12 0 9 Z" transform="rotate(45)"/><g transform="scale(-1,1)"><path d="M0 0 Q64 -46 132 8 Q66 -12 0 9 Z" transform="rotate(-40)"/><path d="M0 0 Q64 -46 132 8 Q66 -12 0 9 Z" transform="rotate(-13)"/><path d="M0 0 Q64 -46 132 8 Q66 -12 0 9 Z" transform="rotate(16)"/><path d="M0 0 Q64 -46 132 8 Q66 -12 0 9 Z" transform="rotate(45)"/></g></g><g fill="#0f3b4a" opacity=".9"><circle cx="-11" cy="10" r="8"/><circle cx="9" cy="14" r="8"/><circle cx="-1" cy="25" r="8"/></g></g></g><g transform="translate(600 720) scale(0.82)"><rect x="-133" y="-85" width="26" height="85" rx="13" fill="#ffffff" opacity=".9"/><circle cx="-120" cy="-99" r="14" fill="#c98a5e"/><rect x="-90" y="-86" width="26" height="86" rx="13" fill="#ffffff" opacity=".9"/><circle cx="-77" cy="-100" r="14" fill="#f0b183"/><rect x="-32" y="-75" width="26" height="75" rx="13" fill="#ff5d73" opacity=".9"/><circle cx="-19" cy="-89" r="14" fill="#5d3721"/><rect x="3" y="-95" width="26" height="95" rx="13" fill="#ffffff" opacity=".9"/><circle cx="16" cy="-109" r="14" fill="#8a5334"/><rect x="61" y="-77" width="26" height="77" rx="13" fill="#ffc531" opacity=".9"/><circle cx="74" cy="-91" r="14" fill="#f6c9a0"/></g></svg>