<svg xmlns="http://www.w3.org/2000/svg" viewBox="0 0 1200 900" width="1200" height="900" preserveAspectRatio="xMidYMid slice" role="img" aria-label="A private night chariot tour lit up in South Beach">
<defs>
<linearGradient id="sky" x1="0" y1="0" x2="0" y2="1"><stop offset="0" stop-color="#101a45"/><stop offset="1" stop-color="#4b2a72"/></linearGradient>
<linearGradient id="sea" x1="0" y1="0" x2="0" y2="1"><stop offset="0" stop-color="#123a64"/><stop offset="1" stop-color="#05132e"/></linearGradient>
<radialGradient id="glow" cx=".5" cy=".5" r=".5"><stop offset="0" stop-color="#8f7bd6" stop-opacity=".85"/><stop offset="1" stop-color="#8f7bd6" stop-opacity="0"/></radialGradient>
</defs>
<rect width="1200" height="900" fill="url(#sky)"/><circle cx="906" cy="300" r="300" fill="url(#glow)"/><circle cx="906" cy="300" r="118" fill="#fdf3c8"/><g fill="none" stroke="#fdf3c8" stroke-width="5" opacity=".35"><circle cx="906" cy="300" r="168"/><circle cx="906" cy="300" r="222"/></g><g fill="#0a0f2c" opacity=".9"><rect x="-20" y="490" width="74" height="122" rx="7"/><rect x="9.0" y="460" width="16" height="32" rx="4"/><rect x="-12" y="530" width="58" height="6" rx="3" opacity=".4"/><rect x="78" y="410" width="94" height="202" rx="7"/><rect x="117.0" y="380" width="16" height="32" rx="4"/><rect x="86" y="450" width="78" height="6" rx="3" opacity=".4"/><rect x="86" y="490" width="78" height="6" rx="3" opacity=".4"/><rect x="86" y="530" width="78" height="6" rx="3" opacity=".4"/><rect x="196" y="410" width="94" height="202" rx="7"/><rect x="235.0" y="380" width="16" height="32" rx="4"/><rect x="204" y="450" width="78" height="6" rx="3" opacity=".4"/><rect x="204" y="490" width="78" height="6" rx="3" opacity=".4"/><rect x="204" y="530" width="78" height="6" rx="3" opacity=".4"/><rect x="314" y="410" width="94" height="202" rx="7"/><rect x="353.0" y="380" width="16" height="32" rx="4"/><rect x="322" y="450" width="78" height="6" rx="3" opacity=".4"/><rect x="322" y="490" width="78" height="6" rx="3" opacity=".4"/><rect x="322" y="530" width="78" height="6" rx="3" opacity=".4"/><rect x="426" y="490" width="74" height="122" rx="7"/><rect x="455.0" y="460" width="16" height="32" rx="4"/><rect x="434" y="530" width="58" height="6" rx="3" opacity=".4"/><rect x="530" y="410" width="118" height="202" rx="7"/><rect x="581.0" y="380" width="16" height="32" rx="4"/><rect x="538" y="450" width="102" height="6" rx="3" opacity=".4"/><rect x="538" y="490" width="102" height="6" rx="3" opacity=".4"/><rect x="538" y="530" width="102" height="6" rx="3" opacity=".4"/><rect x="672" y="450" width="54" height="162" rx="7"/><rect x="691.0" y="420" width="16" height="32" rx="4"/><rect x="680" y="490" width="38" height="6" rx="3" opacity=".4"/><rect x="680" y="530" width="38" height="6" rx="3" opacity=".4"/><rect x="756" y="490" width="74" height="122" rx="7"/><rect x="785.0" y="460" width="16" height="32" rx="4"/><rect x="764" y="530" width="58" height="6" rx="3" opacity=".4"/><rect x="860" y="490" width="54" height="122" rx="7"/><rect x="879.0" y="460" width="16" height="32" rx="4"/><rect x="868" y="530" width="38" height="6" rx="3" opacity=".4"/><rect x="932" y="450" width="94" height="162" rx="7"/><rect x="971.0" y="420" width="16" height="32" rx="4"/><rect x="940" y="490" width="78" height="6" rx="3" opacity=".4"/><rect x="940" y="530" width="78" height="6" rx="3" opacity=".4"/><rect x="1044" y="370" width="54" height="242" rx="7"/><rect x="1063.0" y="340" width="16" height="32" rx="4"/><rect x="1052" y="410" width="38" height="6" rx="3" opacity=".4"/><rect x="1052" y="450" width="38" height="6" rx="3" opacity=".4"/><rect x="1052" y="490" width="38" height="6" rx="3" opacity=".4"/><rect x="1052" y="530" width="38" height="6" rx="3" opacity=".4"/><rect x="1116" y="490" width="54" height="122" rx="7"/><rect x="1135.0" y="460" width="16" height="32" rx="4"/><rect x="1124" y="530" width="38" height="6" rx="3" opacity=".4"/><rect x="1188" y="450" width="74" height="162" rx="7"/><rect x="1217.0" y="420" width="16" height="32" rx="4"/><rect x="1196" y="490" width="58" height="6" rx="3" opacity=".4"/><rect x="1196" y="530" width="58" height="6" rx="3" opacity=".4"/></g><rect x="0" y="600" width="1200" height="300" fill="url(#sea)"/><g fill="#fdf3c8" opacity=".38"><rect x="846" y="614" width="120" height="7" rx="3"/><rect x="811" y="640" width="190" height="7" rx="3"/><rect x="866" y="666" width="80" height="7" rx="3"/><rect x="791" y="692" width="230" height="7" rx="3"/><rect x="874" y="718" width="64" height="7" rx="3"/><rect x="831" y="744" width="150" height="7" rx="3"/></g><g fill="none" stroke="#ffffff" stroke-width="5" opacity=".3" stroke-linecap="round"><path d="M-20 640 q 30 -22 60 0 t 60 0 q 30 -22 60 0 t 60 0 q 30 -22 60 0 t 60 0 q 30 -22 60 0 t 60 0 q 30 -22 60 0 t 60 0 q 30 -22 60 0 t 60 0 q 30 -22 60 0 t 60 0 q 30 -22 60 0 t 60 0 q 30 -22 60 0 t 60 0 q 30 -22 60 0 t 60 0 q 30 -22 60 0 t 60 0"/><path d="M-20 684 q 38 -22 76 0 t 76 0 q 38 -22 76 0 t 76 0 q 38 -22 76 0 t 76 0 q 38 -22 76 0 t 76 0 q 38 -22 76 0 t 76 0 q 38 -22 76 0 t 76 0 q 38 -22 76 0 t 76 0 q 38 -22 76 0 t 76 0 q 38 -22 76 0 t 76 0"/></g><path d="M0 718 C300 686 640 742 960 714 C1120 700 1080 710 1200 708 L1200 900 L0 900 Z" fill="#2b2a52"/><g transform="translate(60 912) scale(1.28)"><path d="M0 0 C-14 -100 -6 -192 6 -268" stroke="#050b22" stroke-width="15" fill="none" stroke-linecap="round"/><g transform="translate(6 -268)"><g fill="#050b22"><path d="M0 0 Q64 -46 132 8 Q66 -12 0 9 Z" transform="rotate(-40)"/><path d="M0 0 Q64 -46 132 8 Q66 -12 0 9 Z" transform="rotate(-13)"/><path d="M0 0 Q64 -46 132 8 Q66 -12 0 9 Z" transform="rotate(16)"/><path d="M0 0 Q64 -46 132 8 Q66 -12 0 9 Z" transform="rotate(45)"/><g transform="scale(-1,1)"><path d="M0 0 Q64 -46 132 8 Q66 -12 0 9 Z" transform="rotate(-40)"/><path d="M0 0 Q64 -46 132 8 Q66 -12 0 9 Z" transform="rotate(-13)"/><path d="M0 0 Q64 -46 132 8 Q66 -12 0 9 Z" transform="rotate(16)"/><path d="M0 0 Q64 -46 132 8 Q66 -12 0 9 Z" transform="rotate(45)"/></g></g><g fill="#050b22" opacity=".9"><circle cx="-11" cy="10" r="8"/><circle cx="9" cy="14" r="8"/><circle cx="-1" cy="25" r="8"/></g></g></g><g transform="translate(1154 934) scale(1.42)"><path d="M0 0 C-14 -100 -6 -192 6 -268" stroke="#050b22" stroke-width="15" fill="none" stroke-linecap="round"/><g transform="translate(6 -268)"><g fill="#050b22"><path d="M0 0 Q64 -46 132 8 Q66 -12 0 9 Z" transform="rotate(-40)"/><path d="M0 0 Q64 -46 132 8 Q66 -12 0 9 Z" transform="rotate(-13)"/><path d="M0 0 Q64 -46 132 8 Q66 -12 0 9 Z" transform="rotate(16)"/><path d="M0 0 Q64 -46 132 8 Q66 -12 0 9 Z" transform="rotate(45)"/><g transform="scale(-1,1)"><path d="M0 0 Q64 -46 132 8 Q66 -12 0 9 Z" transform="rotate(-40)"/><path d="M0 0 Q64 -46 132 8 Q66 -12 0 9 Z" transform="rotate(-13)"/><path d="M0 0 Q64 -46 132 8 Q66 -12 0 9 Z" transform="rotate(16)"/><path d="M0 0 Q64 -46 132 8 Q66 -12 0 9 Z" transform="rotate(45)"/></g></g><g fill="#050b22" opacity=".9"><circle cx="-11" cy="10" r="8"/><circle cx="9" cy="14" r="8"/><circle cx="-1" cy="25" r="8"/></g></g></g>
<g transform="translate(470 816) scale(1.66)"><g stroke="#1d2b33" stroke-width="7" fill="none"><circle cx="-44" cy="-16" r="16"/><circle cx="44" cy="-16" r="16"/><circle cx="0" cy="-16" r="16"/></g><path d="M-44 -16 L0 -46 L44 -16" stroke="#00e0d1" stroke-width="9" fill="none" stroke-linecap="round" stroke-linejoin="round"/><path d="M0 -46 L0 -16" stroke="#00e0d1" stroke-width="9" stroke-linecap="round"/><path d="M0 -46 L4 -112" stroke="#00e0d1" stroke-width="10" stroke-linecap="round"/><path d="M-18 -114 L28 -114" stroke="#1d2b33" stroke-width="8" stroke-linecap="round"/></g><g transform="translate(470 816) scale(1.66) rotate(-6)"><path d="M0 -20 L0 -64" stroke="#12303c" stroke-width="12" fill="none" stroke-linecap="round"/><path d="M0 -62 L2 -108" stroke="#ff5d73" stroke-width="24" fill="none" stroke-linecap="round"/><path d="M2 -102 L26 -86" stroke="#c98a5e" stroke-width="9" fill="none" stroke-linecap="round"/><path d="M2 -102 L-20 -88" stroke="#c98a5e" stroke-width="9" fill="none" stroke-linecap="round" opacity=".6"/><circle cx="4" cy="-124" r="13" fill="#c98a5e"/><path d="M-12 -125 a16 16 0 0 1 32 0 l-4 4 l-24 0 Z" fill="#ffffff"/><path d="M-12 -125 l32 0" stroke="#12303c" stroke-width="2" opacity=".25"/></g><g transform="translate(720 816) scale(1.66)"><g stroke="#1d2b33" stroke-width="7" fill="none"><circle cx="-44" cy="-16" r="16"/><circle cx="44" cy="-16" r="16"/><circle cx="0" cy="-16" r="16"/></g><path d="M-44 -16 L0 -46 L44 -16" stroke="#ff5d73" stroke-width="9" fill="none" stroke-linecap="round" stroke-linejoin="round"/><path d="M0 -46 L0 -16" stroke="#ff5d73" stroke-width="9" stroke-linecap="round"/><path d="M0 -46 L4 -112" stroke="#ff5d73" stroke-width="10" stroke-linecap="round"/><path d="M-18 -114 L28 -114" stroke="#1d2b33" stroke-width="8" stroke-linecap="round"/></g><g transform="translate(720 816) scale(1.66) rotate(-6)"><path d="M0 -20 L0 -64" stroke="#12303c" stroke-width="12" fill="none" stroke-linecap="round"/><path d="M0 -62 L2 -108" stroke="#00e0d1" stroke-width="24" fill="none" stroke-linecap="round"/><path d="M2 -102 L26 -86" stroke="#f6c9a0" stroke-width="9" fill="none" stroke-linecap="round"/><path d="M2 -102 L-20 -88" stroke="#f6c9a0" stroke-width="9" fill="none" stroke-linecap="round" opacity=".6"/><circle cx="4" cy="-124" r="13" fill="#f6c9a0"/><path d="M-12 -125 a16 16 0 0 1 32 0 l-4 4 l-24 0 Z" fill="#ffffff"/><path d="M-12 -125 l32 0" stroke="#12303c" stroke-width="2" opacity=".25"/></g>
</svg>